<svg xmlns="http://www.w3.org/2000/svg" viewBox="0 0 64 64" role="img" aria-label="Tarefas">
  <!-- caderno -->
  <rect x="14" y="4" width="42" height="54" rx="7" fill="#ffffff" stroke="#3d4f5c" stroke-width="4"/>
  <!-- espiral -->
  <g fill="#3d4f5c">
    <rect x="6" y="9"  width="14" height="5" rx="2.5"/>
    <rect x="6" y="20" width="14" height="5" rx="2.5"/>
    <rect x="6" y="31" width="14" height="5" rx="2.5"/>
    <rect x="6" y="42" width="14" height="5" rx="2.5"/>
    <rect x="6" y="53" width="14" height="5" rx="2.5"/>
  </g>
  <!-- checks -->
  <g fill="none" stroke="#2a76a8" stroke-width="4.5" stroke-linecap="round" stroke-linejoin="round">
    <path d="M27 14.5 l3.5 3.5 L37 10.5"/>
    <path d="M27 26.5 l3.5 3.5 L37 22.5"/>
    <path d="M27 38.5 l3.5 3.5 L37 34.5"/>
  </g>
  <!-- linhas de texto -->
  <g stroke="#3d4f5c" stroke-width="3.5" stroke-linecap="round">
    <path d="M42 15 h9"/>
    <path d="M42 27 h9"/>
    <path d="M42 39 h9"/>
  </g>
  <!-- lapis -->
  <g transform="translate(59,33) rotate(137)">
    <rect x="0" y="-4.5" width="24" height="9" rx="2" fill="#2a76a8"/>
    <path d="M24 -4.5 L31 0 L24 4.5 Z" fill="#3d4f5c"/>
  </g>
</svg>
